Coordinates
version=1
nRows=7
nColumns=40
inDegrees=yes

Units are S.I. units (second, meters, Newtons, ...)
If the header above contains a line with 'inDegrees', this indicates whether rotational values are in degrees (yes) or radians (no).

endheader
time	pelvis_tilt	pelvis_list	pelvis_rotation	pelvis_tx	pelvis_ty	pelvis_tz	hip_flexion_r	hip_adduction_r	hip_rotation_r	knee_angle_r	knee_angle_r_beta	ankle_angle_r	subtalar_angle_r	mtp_angle_r	hip_flexion_l	hip_adduction_l	hip_rotation_l	knee_angle_l	knee_angle_l_beta	ankle_angle_l	subtalar_angle_l	mtp_angle_l	lumbar_extension	lumbar_bending	lumbar_rotation	arm_flex_r	arm_add_r	arm_rot_r	elbow_flex_r	pro_sup_r	wrist_flex_r	wrist_dev_r	arm_flex_l	arm_add_l	arm_rot_l	elbow_flex_l	pro_sup_l	wrist_flex_l	wrist_dev_l
      0.23000000	    -17.23355165	      0.96008973	    -12.22344583	      0.99192519	      0.98180262	     -0.34226649	     39.08849692	      6.88261123	    -10.70062967	     20.04251741	      0.34980792	    -25.37916423	      0.00000000	      0.00000000	     14.13911407	     -5.10236103	    -10.01495999	     80.57262916	      1.40625767	    -26.46049118	      0.00000000	      0.00000000	      9.52790859	      5.49819396	      3.49268606	    -32.94384497	    -25.70197480	     -6.82759472	     97.08932615	     67.06721886	      0.00000000	      0.00000000	    -28.34864657	    -15.62817809	     -0.44133005	    105.10605803	     69.11786808	      0.00000000	      0.00000000
      0.24000000	    -17.04180377	     -0.81893185	    -12.41800623	      0.98647998	      0.97652871	     -0.34263830	     38.35810176	      8.37309402	     -9.46125580	     23.50137721	      0.41017641	    -22.58431703	      0.00000000	      0.00000000	     17.91540461	     -8.19878255	     -9.13217807	     86.04483946	      1.50176575	    -24.82591125	      0.00000000	      0.00000000	      7.88940098	      7.88473886	      4.59682065	    -29.76483190	    -26.09313090	     -6.33030366	     94.64079486	     67.68644907	      0.00000000	      0.00000000	    -27.11189172	    -14.91460850	      0.34985487	     99.87768632	     69.71027166	      0.00000000	      0.00000000
      0.25000000	    -17.68482667	     -2.07033037	    -12.37080247	      0.98140853	      0.97019034	     -0.34280103	     38.19296407	      9.45382023	     -8.79835585	     26.47712262	      0.46211297	    -18.28228759	      0.00000000	      0.00000000	     22.82650272	    -10.91733238	     -8.03075751	     90.94384861	      1.58726959	    -22.52576696	      0.00000000	      0.00000000	      7.51721636	      9.70155718	      5.77297848	    -27.11324935	    -26.47848381	     -5.40442237	     92.68498460	     68.46119181	      0.00000000	      0.00000000	    -26.14614522	    -14.43359507	      1.60834006	     95.33115464	     70.59742627	      0.00000000	      0.00000000
      0.26000000	    -17.42007703	     -2.78429949	    -11.92090106	      0.97680401	      0.96591340	     -0.34317502	     36.70240387	      9.81394848	     -7.40835786	     28.81509287	      0.50291824	    -15.84370236	      0.00000000	      0.00000000	     27.02077366	    -12.41760521	     -6.45785286	     94.51017912	      1.64951380	    -21.51924671	      0.00000000	      0.00000000	      6.13159156	     10.52567541	      6.76200840	    -24.07574107	    -26.51449039	     -5.14514699	     90.79638694	     68.63945786	      0.00000000	      0.00000000	    -25.21266651	    -14.15691678	      2.61293274	     91.68539936	     70.80677271	      0.00000000	      0.00000000
      0.27000000	    -17.90510809	     -3.75603239	    -11.25189291	      0.97446355	      0.96230709	     -0.34392414	     35.32402607	     10.39105616	     -6.67131734	     30.57941722	      0.53371151	    -11.00367010	      0.00000000	      0.00000000	     31.82667588	    -13.90146540	     -4.60688172	     96.93185148	      1.69177996	    -19.50828478	      0.00000000	      0.00000000	      6.27298540	     11.93601950	      7.34722533	    -21.45515915	    -26.66886801	     -3.95560664	     88.19721838	     69.06800680	      0.00000000	      0.00000000	    -24.95010934	    -14.02520535	      4.44567323	     87.24733528	     71.13394298	      0.00000000	      0.00000000
      0.28000000	    -17.86389160	     -3.54262451	    -11.04018775	      0.97150305	      0.96049881	     -0.34368355	     33.01636839	      9.82206957	     -6.70554235	     30.88065554	      0.53896911	     -9.99073881	      0.00000000	      0.00000000	     35.94116993	    -14.45963823	     -4.18026562	     98.10818344	      1.71231082	    -19.04652314	      0.00000000	      0.00000000	      5.45227601	     11.57454966	      9.04305571	    -19.41944905	    -26.69996123	     -3.78608301	     87.99684858	     69.07374872	      0.00000000	      0.00000000	    -25.09720151	    -13.98944663	      4.88486451	     86.19507399	     71.06056509	      0.00000000	      0.00000000
      0.29000000	    -17.65677195	     -3.51283642	    -10.46768111	      0.97157237	      0.96101871	     -0.34439661	     30.40326792	      9.19563875	     -6.57243890	     31.50783732	      0.54991550	     -9.68242635	      0.00000000	      0.00000000	     39.12501295	    -14.84446752	     -3.96575692	     97.60812674	      1.70358319	    -18.65260984	      0.00000000	      0.00000000	      5.45340082	     11.54827020	     10.45670981	    -18.45810887	    -26.76828948	     -3.73358282	     88.04826235	     68.91029416	      0.00000000	      0.00000000	    -25.69246904	    -14.01524443	      4.99484325	     85.83400342	     70.84507285	      0.00000000	      0.00000000
